<svg width="640" height="320" viewBox="0 0 640 320" fill="none" xmlns="http://www.w3.org/2000/svg">
<path fill-rule="evenodd" clip-rule="evenodd" d="M215.986 160.485C215.986 187.263 194.279 208.97 167.501 208.97C140.724 208.97 119.016 187.263 119.016 160.485C119.016 133.708 140.724 112 167.501 112C194.279 112 215.986 133.708 215.986 160.485ZM199.165 160.485C199.165 177.973 184.989 192.149 167.501 192.149C150.014 192.149 135.837 177.973 135.837 160.485C135.837 142.997 150.014 128.821 167.501 128.821C184.989 128.821 199.165 142.997 199.165 160.485Z" fill="#7E41FF"/>
<path d="M105.459 114.409H89V206.561H105.459V114.409Z" fill="#7E41FF"/>
<path d="M231.464 206.641H247.989V142.536L256.679 156.069L279.614 188.834L302.265 156.354C306.253 150.656 309.103 145.955 311.097 142.536V206.641H327.622V114.329H313.234L300.413 132.421L279.614 161.91L258.673 132.279L245.852 114.329H231.464V206.641Z" fill="black"/>
<path d="M356.588 165.329C357.585 160.343 359.865 156.354 363.569 153.22C367.13 150.086 371.261 148.519 375.82 148.519C380.663 148.519 384.937 150.086 388.641 153.22C392.202 156.354 394.339 160.343 395.194 165.329H356.588ZM340.348 171.454C340.348 182.708 344.052 191.683 351.46 198.236C358.868 204.789 367.842 208.065 378.384 208.065C387.929 208.065 396.903 205.359 405.166 199.66L398.898 187.979C393.057 192.11 386.362 194.105 378.669 194.105C373.113 194.105 368.412 192.68 364.423 189.689C360.435 186.697 357.87 182.423 356.731 177.01H410.152L410.579 170.884C410.579 160.912 407.16 152.507 400.607 145.385C394.054 138.262 386.077 134.7 376.675 134.7C366.418 134.7 357.87 138.404 350.89 145.527C343.767 152.65 340.348 161.34 340.348 171.454Z" fill="black"/>
<path d="M418.465 197.809C421.03 200.373 424.876 202.794 429.719 204.931C434.563 207.068 440.261 208.065 446.814 208.065C454.507 208.065 461.345 206.213 467.613 202.51C473.738 198.806 476.872 193.107 476.872 185.557C476.872 179.004 474.308 174.018 469.465 170.599C464.479 167.18 458.068 164.616 450.091 162.907C447.241 162.337 445.247 161.91 443.965 161.482C442.54 161.197 441.258 160.485 439.976 159.488C438.552 158.491 437.982 157.209 437.982 155.642C437.982 153.932 438.979 152.365 441.116 151.225C443.253 150.086 445.674 149.516 448.524 149.516C455.077 149.516 461.487 151.368 467.755 154.787L473.596 141.966C465.333 137.122 456.928 134.7 448.381 134.7C441.543 134.7 435.418 136.695 430.004 140.541C424.591 144.388 421.884 149.516 421.884 155.926C421.884 159.345 422.454 162.194 423.736 164.616C424.876 167.038 426.87 169.032 429.434 170.599C431.999 172.309 434.42 173.591 436.985 174.446C439.406 175.3 442.683 176.298 446.672 177.437C447.241 177.722 447.954 177.865 448.951 178.15C449.948 178.434 450.66 178.577 451.23 178.719C451.8 179.004 452.512 179.147 453.367 179.432C454.222 179.717 454.792 179.859 455.361 180.144C455.931 180.429 456.501 180.571 457.213 180.856C457.783 181.141 458.353 181.569 458.638 181.853C458.923 182.138 459.35 182.566 459.778 182.993C460.062 183.42 460.347 183.848 460.49 184.275C460.632 184.845 460.775 185.272 460.775 185.842C460.775 188.121 459.35 189.973 456.501 191.256C453.652 192.68 450.375 193.25 446.814 193.25C438.837 193.25 431.286 190.543 424.449 184.845L418.465 197.809Z" fill="black"/>
<path d="M488.18 206.641H503.992V169.602C503.992 163.904 505.559 159.203 508.693 155.499C511.827 151.795 515.959 149.943 521.372 149.943C526.928 149.943 530.774 151.51 532.911 154.502C535.048 157.493 536.187 162.052 536.187 168.178V206.641H552V166.183C552 145.242 543.453 134.7 526.643 134.7C516.528 134.7 508.978 138.547 503.992 146.239V112.905H488.18V206.641Z" fill="black"/>
</svg>
