<svg id="Capa_1" enable-background="new 0 0 512 512" height="512" viewBox="0 0 512 512" width="512" xmlns="http://www.w3.org/2000/svg"><g><path d="m461.882 512h-411.763c-27.68 0-50.119-22.439-50.119-50.119v-411.762c0-27.68 22.439-50.119 50.119-50.119h411.763c27.679 0 50.118 22.439 50.118 50.119v411.763c0 27.679-22.439 50.118-50.118 50.118z" fill="#a6eddf"/><path d="m76.841 512h-26.723c-27.68 0-50.118-22.437-50.118-50.118v-411.763c0-27.681 22.438-50.118 50.118-50.118h26.723c-27.681 0-50.118 22.437-50.118 50.118v411.764c0 27.68 22.437 50.117 50.118 50.117z" fill="#7bd9c5"/><path d="m50.119 470.793c-4.914 0-8.911-3.997-8.911-8.911v-411.763c0-4.914 3.997-8.911 8.911-8.911h411.763c4.913 0 8.911 3.997 8.911 8.911v411.763c0 4.914-3.998 8.911-8.911 8.911z" fill="#c5f4fc"/><path d="m470.793 50.119v411.764c0 4.914-3.997 8.911-8.911 8.911h-28.773c4.914 0 8.911-3.997 8.911-8.911v-411.764c0-4.914-3.997-8.911-8.911-8.911h28.773c4.914 0 8.911 3.997 8.911 8.911z" fill="#7dddfa"/><path d="m461.882 33.481h-411.763c-9.174 0-16.638 7.464-16.638 16.638v411.762c0 9.174 7.464 16.638 16.638 16.638h411.763c9.174 0 16.638-7.464 16.638-16.638v-411.762c0-9.174-7.464-16.638-16.638-16.638zm-139.152 429.585h-129.313c7.119-46.751 11.601-90.216 14.218-129.827 17.198 3.069 34.677 6.487 52.035 9.881 27.748 5.426 55.058 10.765 80.57 14.537 1.018 38.196-3.113 74.243-17.51 105.409zm-60.094-135.11c-18.023-3.525-36.172-7.073-54.058-10.238 2.901-52.397 2.553-97.545.888-134.013 34.274 13.815 72.858 29.302 114.296 35.471.892 5.83 1.796 11.654 2.699 17.461 5.475 35.211 11.026 70.935 13.088 105.267-24.658-3.732-50.914-8.864-76.913-13.948zm-213.702-140.811c19.089-23.049 41.083-32.958 68.993-31.154 22.924 1.484 48.583 10.619 75.761 21.387 1.906 36.758 2.509 83.22-.441 137.716-56.048-9.218-108.303-13.404-144.313.414zm158.919-31.273c-3.839-54.281-10.391-90.686-13.789-106.938h123.791c-9.786 46.61-4.357 100.411 3.514 154.27-37.886-6.33-73.316-20.606-106.706-34.065-2.041-.823-4.075-1.642-6.102-2.457-.224-3.712-.461-7.319-.708-10.81zm133.878 78.39c-.687-4.419-1.372-8.822-2.048-13.209 6.975.603 13.881.912 20.724.912 35.6 0 69.49-8.185 102.66-24.737v128.319c-14.398 23.772-56.524 25.13-107.895 18.547-1.955-35.936-7.739-73.154-13.441-109.832zm121.336-184.143v129.705c-44.808 24.1-86.584 29.546-125.766 25.532-8.463-56.8-14.218-110.277-3.64-156.423h128.221c.643.001 1.185.543 1.185 1.186zm-412.948-1.185h128.129c2.974 13.73 10.212 51.374 14.229 108.559.067.953.133 1.917.198 2.886-25.908-10.07-50.586-18.307-73.75-19.808-27.188-1.764-50.246 6.177-69.992 24.179v-114.631c.001-.643.543-1.185 1.186-1.185zm-1.185 412.947v-129.583c32.601-15.607 85.673-11.309 143.39-1.703-2.616 40.283-7.18 84.643-14.536 132.472h-127.669c-.643-.001-1.185-.543-1.185-1.186zm412.948 1.185h-122.286c13.004-31.419 16.952-66.522 16.175-103.288 16.059 1.99 31.242 3.193 45.165 3.193 25.835 0 47.341-4.136 62.13-14.996v113.907c.001.642-.541 1.184-1.184 1.184z" fill="#5171f4"/></g></svg>