<svg width="48" height="48" viewBox="0 0 48 48" fill="none" xmlns="http://www.w3.org/2000/svg">
<path d="M10.1193 30.3439C10.1193 33.1338 7.86631 35.3885 5.07872 35.3885C2.29113 35.3885 0.038147 33.1338 0.038147 30.3439C0.038147 27.5541 2.29113 25.2994 5.07872 25.2994H10.1193V30.3439Z" fill="#2D3A56"/>
<path d="M12.6396 30.3439C12.6396 27.5541 14.8926 25.2994 17.6802 25.2994C20.4677 25.2994 22.7207 27.5541 22.7207 30.3439V42.9554C22.7207 45.7452 20.4677 48 17.6802 48C14.8926 48 12.6396 45.7452 12.6396 42.9554V30.3439Z" fill="#2D3A56"/>
<path d="M17.6802 10.0892C14.8926 10.0892 12.6396 7.8344 12.6396 5.04459C12.6396 2.25478 14.8926 0 17.6802 0C20.4677 0 22.7207 2.25478 22.7207 5.04459V10.0892H17.6802Z" fill="#6B7D99"/>
<path d="M17.6802 12.6497C20.4678 12.6497 22.7208 14.9045 22.7208 17.6943C22.7208 20.4841 20.4678 22.7389 17.6802 22.7389H5.04057C2.25298 22.7389 0 20.4841 0 17.6943C0 14.9045 2.25298 12.6497 5.04057 12.6497H17.6802Z" fill="#6B7D99"/>
<path d="M37.8807 17.6943C37.8807 14.9045 40.1337 12.6497 42.9213 12.6497C45.7088 12.6497 47.9618 14.9045 47.9618 17.6943C47.9618 20.4841 45.7088 22.7389 42.9213 22.7389H37.8807V17.6943Z" fill="#2D3A56"/>
<path d="M35.3604 17.6943C35.3604 20.4841 33.1074 22.7389 30.3198 22.7389C27.5322 22.7389 25.2792 20.4841 25.2792 17.6943V5.04459C25.2792 2.25478 27.5322 0 30.3198 0C33.1074 0 35.3604 2.25478 35.3604 5.04459V17.6943Z" fill="#2D3A56"/>
<path d="M30.3198 37.9108C33.1074 37.9108 35.3604 40.1656 35.3604 42.9554C35.3604 45.7452 33.1074 48 30.3198 48C27.5322 48 25.2792 45.7452 25.2792 42.9554V37.9108H30.3198Z" fill="#6B7D99"/>
<path d="M30.3198 35.3885C27.5322 35.3885 25.2792 33.1338 25.2792 30.3439C25.2792 27.5541 27.5322 25.2994 30.3198 25.2994H42.9594C45.747 25.2994 48 27.5541 48 30.3439C48 33.1338 45.747 35.3885 42.9594 35.3885H30.3198Z" fill="#6B7D99"/>
</svg>
