<svg width="640" height="320" viewBox="0 0 640 320" fill="none" xmlns="http://www.w3.org/2000/svg"><path fill-rule="evenodd" clip-rule="evenodd" d="M215.986 160.485c0 26.778-21.707 48.485-48.485 48.485-26.777 0-48.485-21.707-48.485-48.485 0-26.777 21.708-48.485 48.485-48.485 26.778 0 48.485 21.708 48.485 48.485zm-16.821 0c0 17.488-14.176 31.664-31.664 31.664-17.487 0-31.664-14.176-31.664-31.664s14.177-31.664 31.664-31.664c17.488 0 31.664 14.176 31.664 31.664z" fill="#7E41FF"/><path d="M105.459 114.409H89v92.152h16.459v-92.152z" fill="#7E41FF"/><path d="M231.464 206.641h16.525v-64.105l8.69 13.533 22.935 32.765 22.651-32.48a194.378 194.378 0 008.832-13.818v64.105h16.525v-92.312h-14.388l-12.821 18.092-20.799 29.489-20.941-29.631-12.821-17.95h-14.388v92.312zm125.124-41.312c.997-4.986 3.277-8.975 6.981-12.109 3.561-3.134 7.692-4.701 12.251-4.701 4.843 0 9.117 1.567 12.821 4.701 3.561 3.134 5.698 7.123 6.553 12.109h-38.606zm-16.24 6.125c0 11.254 3.704 20.229 11.112 26.782 7.408 6.553 16.382 9.829 26.924 9.829 9.545 0 18.519-2.706 26.782-8.405l-6.268-11.681c-5.841 4.131-12.536 6.126-20.229 6.126-5.556 0-10.257-1.425-14.246-4.416-3.988-2.992-6.553-7.266-7.692-12.679h53.421l.427-6.126c0-9.972-3.419-18.377-9.972-25.499-6.553-7.123-14.53-10.685-23.932-10.685-10.257 0-18.805 3.704-25.785 10.827-7.123 7.123-10.542 15.813-10.542 25.927zm78.117 26.355c2.565 2.564 6.411 4.985 11.254 7.122 4.844 2.137 10.542 3.134 17.095 3.134 7.693 0 14.531-1.852 20.799-5.555 6.125-3.704 9.259-9.403 9.259-16.953 0-6.553-2.564-11.539-7.407-14.958-4.986-3.419-11.397-5.983-19.374-7.692-2.85-.57-4.844-.997-6.126-1.425-1.425-.285-2.707-.997-3.989-1.994-1.424-.997-1.994-2.279-1.994-3.846 0-1.71.997-3.277 3.134-4.417 2.137-1.139 4.558-1.709 7.408-1.709 6.553 0 12.963 1.852 19.231 5.271l5.841-12.821c-8.263-4.844-16.668-7.266-25.215-7.266-6.838 0-12.963 1.995-18.377 5.841-5.413 3.847-8.12 8.975-8.12 15.385 0 3.419.57 6.268 1.852 8.69 1.14 2.422 3.134 4.416 5.698 5.983 2.565 1.71 4.986 2.992 7.551 3.847 2.421.854 5.698 1.852 9.687 2.991.569.285 1.282.428 2.279.713.997.284 1.709.427 2.279.569.57.285 1.282.428 2.137.713s1.425.427 1.994.712c.57.285 1.14.427 1.852.712.57.285 1.14.713 1.425.997l1.14 1.14c.284.427.569.855.712 1.282.142.57.285.997.285 1.567 0 2.279-1.425 4.131-4.274 5.414-2.849 1.424-6.126 1.994-9.687 1.994-7.977 0-15.528-2.707-22.365-8.405l-5.984 12.964zm69.715 8.832h15.812v-37.039c0-5.698 1.567-10.399 4.701-14.103 3.134-3.704 7.266-5.556 12.679-5.556 5.556 0 9.402 1.567 11.539 4.559 2.137 2.991 3.276 7.55 3.276 13.676v38.463H552v-40.458c0-20.941-8.547-31.483-25.357-31.483-10.115 0-17.665 3.847-22.651 11.539v-33.334H488.18v93.736z" fill="#000"/></svg>