<svg width="48" height="48" viewBox="0 0 48 48" fill="none" xmlns="http://www.w3.org/2000/svg"><path d="M10.12 30.344a5.038 5.038 0 01-5.041 5.044 5.038 5.038 0 01-5.04-5.044 5.038 5.038 0 015.04-5.045h5.04v5.045zm2.52 0a5.038 5.038 0 015.04-5.045 5.038 5.038 0 015.04 5.045v12.611A5.038 5.038 0 0117.68 48a5.038 5.038 0 01-5.04-5.045V30.344z" fill="#2D3A56"/><path d="M17.68 10.09a5.038 5.038 0 01-5.04-5.045A5.038 5.038 0 0117.68 0a5.038 5.038 0 015.04 5.045v5.044h-5.04zm0 2.56a5.038 5.038 0 015.04 5.044 5.038 5.038 0 01-5.04 5.045H5.04A5.038 5.038 0 010 17.694a5.038 5.038 0 015.04-5.044h12.64z" fill="#6B7D99"/><path d="M37.88 17.694a5.038 5.038 0 015.041-5.044 5.038 5.038 0 015.04 5.044 5.038 5.038 0 01-5.04 5.045h-5.04v-5.045zm-2.52 0a5.038 5.038 0 01-5.04 5.045 5.038 5.038 0 01-5.04-5.045V5.044A5.038 5.038 0 0130.32 0a5.038 5.038 0 015.04 5.045v12.65z" fill="#2D3A56"/><path d="M30.32 37.91a5.038 5.038 0 015.04 5.045A5.038 5.038 0 0130.32 48a5.038 5.038 0 01-5.04-5.045v-5.044h5.04zm0-2.521a5.038 5.038 0 01-5.04-5.045 5.038 5.038 0 015.04-5.045h12.64A5.038 5.038 0 0148 30.344a5.038 5.038 0 01-5.04 5.044H30.32z" fill="#6B7D99"/></svg>